<svg id="svg" version="1.1" xmlns="http://www.w3.org/2000/svg" xmlns:xlink="http://www.w3.org/1999/xlink" width="400" height="457.14285714285717" viewBox="0, 0, 400,457.14285714285717"><g id="svgg"><path id="path0" d="M181.600 0.276 C 179.951 0.366,178.430 0.610,178.220 0.820 C 178.011 1.029,176.908 1.200,175.769 1.200 C 174.416 1.200,173.525 1.408,173.200 1.800 C 172.896 2.166,172.020 2.400,170.951 2.400 C 169.988 2.400,169.200 2.580,169.200 2.800 C 169.200 3.020,168.390 3.200,167.400 3.200 C 166.410 3.200,165.600 3.380,165.600 3.600 C 165.600 3.820,165.071 4.000,164.424 4.000 C 163.777 4.000,163.136 4.180,163.000 4.400 C 162.864 4.620,162.128 4.800,161.364 4.800 C 160.498 4.800,159.888 5.026,159.745 5.400 C 159.615 5.738,159.019 6.000,158.381 6.000 C 157.757 6.000,157.136 6.180,157.000 6.400 C 156.864 6.620,156.313 6.800,155.776 6.800 C 155.239 6.800,154.800 6.980,154.800 7.200 C 154.800 7.420,154.260 7.600,153.600 7.600 C 152.940 7.600,152.400 7.780,152.400 8.000 C 152.400 8.220,151.995 8.406,151.500 8.413 C 151.005 8.420,150.258 8.684,149.841 9.000 C 149.424 9.316,148.949 9.492,148.786 9.392 C 148.624 9.291,148.268 9.477,147.996 9.804 C 147.724 10.132,147.164 10.400,146.751 10.400 C 146.338 10.400,146.000 10.580,146.000 10.800 C 146.000 11.020,145.640 11.200,145.200 11.200 C 144.760 11.200,144.400 11.380,144.400 11.600 C 144.400 11.820,143.950 12.000,143.400 12.000 C 142.850 12.000,142.400 12.180,142.400 12.400 C 142.400 12.620,142.040 12.800,141.600 12.800 C 141.156 12.800,140.800 13.067,140.800 13.400 C 140.800 13.773,140.422 14.000,139.800 14.000 C 139.250 14.000,138.800 14.180,138.800 14.400 C 138.800 14.620,138.440 14.800,138.000 14.800 C 137.560 14.800,137.200 14.980,137.200 15.200 C 137.200 15.420,136.866 15.600,136.458 15.600 C 136.051 15.600,135.266 16.005,134.715 16.500 C 133.445 17.641,132.158 18.400,131.494 18.400 C 131.209 18.400,130.717 18.760,130.400 19.200 C 130.083 19.640,129.548 20.006,129.212 20.013 C 128.420 20.029,127.200 20.958,127.200 21.544 C 127.200 21.795,126.840 22.000,126.400 22.000 C 125.960 22.000,125.600 22.180,125.600 22.400 C 125.600 22.620,125.330 22.800,125.000 22.800 C 124.670 22.800,124.400 22.936,124.400 23.102 C 124.400 23.269,123.860 23.644,123.200 23.936 C 122.540 24.228,122.000 24.722,122.000 25.034 C 122.000 25.345,121.730 25.600,121.400 25.600 C 121.070 25.600,120.800 25.780,120.800 26.000 C 120.800 26.220,120.575 26.400,120.300 26.400 C 119.637 26.401,117.600 28.171,117.600 28.747 C 117.600 28.996,117.396 29.200,117.147 29.200 C 116.898 29.200,116.403 29.516,116.047 29.903 C 115.691 30.289,114.905 30.860,114.300 31.170 C 113.695 31.481,113.200 31.975,113.200 32.268 C 113.200 32.560,113.047 32.755,112.861 32.700 C 112.259 32.522,102.400 42.867,102.400 43.677 C 102.400 44.101,102.253 44.356,102.073 44.245 C 101.893 44.134,101.128 44.772,100.373 45.665 C 99.618 46.557,98.775 47.524,98.500 47.815 C 98.225 48.105,98.000 48.626,98.000 48.971 C 98.000 49.317,97.796 49.600,97.547 49.600 C 96.958 49.600,95.201 51.643,95.200 52.329 C 95.200 52.976,94.222 54.000,93.605 54.000 C 93.356 54.000,93.255 54.165,93.380 54.368 C 93.505 54.570,93.336 55.007,93.004 55.339 C 92.672 55.671,92.400 56.136,92.400 56.371 C 92.400 56.607,92.220 56.800,92.000 56.800 C 91.780 56.800,91.600 57.117,91.600 57.505 C 91.600 57.893,91.150 58.548,90.600 58.961 C 90.050 59.374,89.600 60.047,89.600 60.456 C 89.600 60.865,89.399 61.200,89.153 61.200 C 88.904 61.200,88.799 61.553,88.916 62.001 C 89.037 62.464,88.961 62.700,88.736 62.560 C 88.521 62.428,88.247 62.698,88.126 63.160 C 88.006 63.622,87.748 64.000,87.553 64.000 C 87.359 64.000,87.200 64.341,87.200 64.757 C 87.200 65.174,86.944 65.613,86.631 65.733 C 86.278 65.868,86.146 66.271,86.282 66.793 C 86.433 67.369,86.331 67.597,85.961 67.517 C 85.658 67.452,85.358 67.797,85.282 68.300 C 85.206 68.795,84.977 69.200,84.772 69.200 C 84.567 69.200,84.400 69.560,84.400 70.000 C 84.400 70.440,84.220 70.800,84.000 70.800 C 83.780 70.800,83.600 71.173,83.600 71.629 C 83.600 72.084,83.328 72.729,82.996 73.061 C 82.664 73.393,82.483 73.811,82.594 73.990 C 82.705 74.170,82.526 74.419,82.198 74.546 C 81.869 74.672,81.600 75.141,81.600 75.587 C 81.600 76.034,81.420 76.400,81.200 76.400 C 80.980 76.400,80.800 76.673,80.800 77.006 C 80.800 77.976,79.834 80.800,79.503 80.800 C 79.336 80.800,79.200 81.228,79.200 81.751 C 79.200 82.274,78.930 82.926,78.600 83.200 C 78.270 83.474,78.000 84.025,78.000 84.425 C 78.000 84.825,77.820 85.264,77.600 85.400 C 77.380 85.536,77.200 86.177,77.200 86.824 C 77.200 87.471,77.020 88.000,76.800 88.000 C 76.580 88.000,76.400 88.709,76.400 89.576 C 76.400 90.443,76.220 91.264,76.000 91.400 C 75.780 91.536,75.600 92.099,75.600 92.652 C 75.600 93.205,75.351 93.906,75.047 94.210 C 74.743 94.514,74.541 95.307,74.598 95.973 C 74.654 96.639,74.453 97.390,74.150 97.641 C 73.839 97.900,73.600 98.847,73.600 99.825 C 73.600 100.775,73.420 101.664,73.200 101.800 C 72.980 101.936,72.800 103.117,72.800 104.424 C 72.800 105.741,72.622 106.800,72.400 106.800 C 72.169 106.800,72.000 108.056,72.000 109.767 C 72.000 111.706,71.835 112.788,71.524 112.892 C 70.830 113.123,70.823 143.674,71.516 143.905 C 71.840 144.013,72.000 145.113,72.000 147.233 C 72.000 149.078,72.167 150.400,72.400 150.400 C 72.622 150.400,72.800 151.459,72.800 152.776 C 72.800 154.083,72.980 155.264,73.200 155.400 C 73.420 155.536,73.600 156.447,73.600 157.424 C 73.600 158.674,73.765 159.200,74.157 159.200 C 74.566 159.200,74.672 159.626,74.556 160.812 C 74.442 161.983,74.564 162.488,75.000 162.655 C 75.367 162.796,75.600 163.402,75.600 164.219 C 75.600 164.953,75.780 165.664,76.000 165.800 C 76.220 165.936,76.400 166.667,76.400 167.424 C 76.400 168.181,76.580 168.800,76.800 168.800 C 77.020 168.800,77.200 169.329,77.200 169.976 C 77.200 170.623,77.380 171.264,77.600 171.400 C 77.820 171.536,78.000 172.022,78.000 172.480 C 78.000 172.937,78.267 173.512,78.593 173.756 C 78.918 174.000,79.251 174.560,79.332 175.000 C 79.512 175.977,79.934 177.168,80.429 178.095 C 80.633 178.477,80.800 179.141,80.800 179.571 C 80.800 180.001,80.980 180.464,81.200 180.600 C 81.420 180.736,81.600 181.197,81.600 181.624 C 81.600 182.051,81.864 182.400,82.187 182.400 C 82.521 182.400,82.684 182.637,82.564 182.948 C 82.449 183.250,82.634 183.777,82.977 184.120 C 83.320 184.463,83.600 185.026,83.600 185.371 C 83.600 185.717,83.780 186.000,84.000 186.000 C 84.220 186.000,84.400 186.349,84.400 186.776 C 84.400 187.203,84.580 187.664,84.800 187.800 C 85.020 187.936,85.200 188.397,85.200 188.824 C 85.200 189.251,85.380 189.600,85.600 189.600 C 85.820 189.600,86.000 189.960,86.000 190.400 C 86.000 190.844,86.267 191.200,86.600 191.200 C 86.973 191.200,87.200 191.578,87.200 192.200 C 87.200 192.750,87.342 193.200,87.516 193.200 C 87.690 193.200,88.312 194.145,88.897 195.300 C 89.483 196.455,90.331 197.665,90.781 197.988 C 91.231 198.312,91.600 198.947,91.600 199.400 C 91.600 199.853,91.960 200.483,92.400 200.800 C 92.840 201.117,93.200 201.697,93.200 202.088 C 93.200 202.480,93.470 202.800,93.800 202.800 C 94.130 202.800,94.400 203.070,94.400 203.400 C 94.400 203.730,94.580 204.000,94.800 204.000 C 95.020 204.000,95.200 204.294,95.200 204.653 C 95.200 205.012,95.530 205.597,95.933 205.953 C 96.336 206.309,96.987 207.095,97.379 207.700 C 97.771 208.305,98.352 208.800,98.670 208.800 C 98.987 208.800,99.135 208.981,98.998 209.203 C 98.861 209.425,98.985 209.845,99.274 210.137 C 99.564 210.429,100.158 211.148,100.595 211.734 C 101.032 212.320,101.617 212.800,101.895 212.800 C 102.173 212.800,102.400 213.083,102.400 213.429 C 102.400 213.774,102.625 214.285,102.900 214.563 C 103.175 214.841,103.758 215.548,104.195 216.134 C 104.632 216.720,105.174 217.200,105.400 217.200 C 105.626 217.200,106.168 217.682,106.605 218.272 C 107.431 219.386,108.564 220.555,109.850 221.622 C 110.262 221.965,110.958 222.730,111.395 223.322 C 111.832 223.915,112.335 224.400,112.512 224.400 C 112.689 224.400,113.220 224.760,113.692 225.200 C 114.164 225.640,114.787 226.000,115.075 226.000 C 115.364 226.000,115.600 226.193,115.600 226.429 C 115.600 226.908,116.590 228.000,117.025 228.000 C 117.179 228.000,117.597 228.324,117.953 228.721 C 118.309 229.117,119.320 229.972,120.200 230.621 C 121.080 231.269,122.033 232.021,122.319 232.290 C 122.604 232.560,123.459 233.075,124.219 233.436 C 124.978 233.796,125.600 234.341,125.600 234.646 C 125.600 234.951,125.920 235.200,126.312 235.200 C 126.703 235.200,127.283 235.560,127.600 236.000 C 127.917 236.440,128.544 236.800,128.993 236.800 C 129.443 236.800,130.148 237.250,130.561 237.800 C 130.974 238.350,131.647 238.800,132.056 238.800 C 132.465 238.800,132.800 238.980,132.800 239.200 C 132.800 239.420,133.036 239.600,133.325 239.600 C 133.613 239.600,134.236 239.960,134.708 240.400 C 135.180 240.840,135.915 241.200,136.340 241.200 C 136.766 241.200,137.218 241.470,137.345 241.800 C 137.471 242.130,137.851 242.400,138.187 242.400 C 138.524 242.400,138.800 242.580,138.800 242.800 C 138.800 243.020,139.250 243.200,139.800 243.200 C 140.350 243.200,140.800 243.380,140.800 243.600 C 140.800 243.820,141.160 244.000,141.600 244.000 C 142.040 244.000,142.400 244.180,142.400 244.400 C 142.400 244.620,142.850 244.800,143.400 244.800 C 143.950 244.800,144.400 244.980,144.400 245.200 C 144.400 245.420,144.760 245.600,145.200 245.600 C 145.644 245.600,146.000 245.867,146.000 246.200 C 146.000 246.573,146.378 246.800,147.000 246.800 C 147.550 246.800,148.000 246.980,148.000 247.200 C 148.000 247.420,148.439 247.600,148.976 247.600 C 149.513 247.600,150.064 247.780,150.200 248.000 C 150.336 248.220,150.887 248.400,151.424 248.400 C 151.961 248.400,152.400 248.580,152.400 248.800 C 152.400 249.020,152.814 249.200,153.320 249.200 C 153.826 249.200,154.450 249.410,154.707 249.667 C 155.262 250.222,157.908 251.185,158.900 251.194 C 159.285 251.197,159.600 251.380,159.600 251.600 C 159.600 251.820,160.421 252.000,161.424 252.000 C 162.537 252.000,163.151 252.156,163.000 252.400 C 162.855 252.634,163.272 252.800,164.005 252.800 C 164.694 252.800,165.527 253.070,165.857 253.400 C 166.187 253.730,167.064 254.000,167.805 254.000 C 168.546 254.000,169.264 254.180,169.400 254.400 C 169.536 254.620,170.346 254.800,171.200 254.800 C 172.054 254.800,172.864 254.980,173.000 255.200 C 173.136 255.420,174.306 255.600,175.600 255.600 C 176.894 255.600,178.064 255.780,178.200 256.000 C 178.336 256.220,179.787 256.400,181.424 256.400 C 183.141 256.400,184.400 256.569,184.400 256.800 C 184.400 257.060,189.867 257.200,200.000 257.200 C 210.133 257.200,215.600 257.060,215.600 256.800 C 215.600 256.569,216.859 256.400,218.576 256.400 C 220.213 256.400,221.664 256.220,221.800 256.000 C 221.936 255.780,223.106 255.600,224.400 255.600 C 225.694 255.600,226.864 255.420,227.000 255.200 C 227.136 254.980,227.946 254.800,228.800 254.800 C 229.654 254.800,230.464 254.620,230.600 254.400 C 230.736 254.180,231.454 254.000,232.195 254.000 C 232.936 254.000,233.813 253.730,234.143 253.400 C 234.473 253.070,235.285 252.800,235.948 252.800 C 236.611 252.800,237.264 252.620,237.400 252.400 C 237.536 252.180,238.267 252.000,239.024 252.000 C 239.781 252.000,240.400 251.820,240.400 251.600 C 240.400 251.380,240.929 251.200,241.576 251.200 C 242.223 251.200,242.864 251.020,243.000 250.800 C 243.136 250.580,243.667 250.400,244.181 250.400 C 244.694 250.400,245.218 250.130,245.345 249.800 C 245.471 249.470,246.031 249.200,246.587 249.200 C 247.144 249.200,247.600 249.020,247.600 248.800 C 247.600 248.580,248.129 248.400,248.776 248.400 C 249.423 248.400,250.064 248.220,250.200 248.000 C 250.336 247.780,250.797 247.600,251.224 247.600 C 251.651 247.600,252.000 247.420,252.000 247.200 C 252.000 246.980,252.450 246.800,253.000 246.800 C 253.622 246.800,254.000 246.573,254.000 246.200 C 254.000 245.827,254.378 245.600,255.000 245.600 C 255.550 245.600,256.000 245.420,256.000 245.200 C 256.000 244.980,256.360 244.800,256.800 244.800 C 257.240 244.800,257.600 244.620,257.600 244.400 C 257.600 244.180,257.960 244.000,258.400 244.000 C 258.840 244.000,259.200 243.820,259.200 243.600 C 259.200 243.380,259.650 243.200,260.200 243.200 C 260.750 243.200,261.200 243.020,261.200 242.800 C 261.200 242.580,261.476 242.400,261.813 242.400 C 262.149 242.400,262.529 242.130,262.655 241.800 C 262.782 241.470,263.316 241.200,263.843 241.200 C 264.369 241.200,264.800 241.041,264.800 240.847 C 264.800 240.652,265.115 240.387,265.500 240.258 C 266.742 239.839,268.816 238.504,269.565 237.641 C 269.966 237.178,270.638 236.800,271.059 236.800 C 271.479 236.800,272.083 236.440,272.400 236.000 C 272.717 235.560,273.297 235.200,273.688 235.200 C 274.080 235.200,274.400 234.930,274.400 234.600 C 274.400 234.270,274.670 234.000,275.000 234.000 C 275.330 234.000,275.600 233.820,275.600 233.600 C 275.600 233.380,275.894 233.200,276.253 233.200 C 276.612 233.200,277.197 232.883,277.553 232.496 C 277.909 232.108,278.920 231.262,279.800 230.616 C 280.680 229.970,281.691 229.117,282.047 228.721 C 282.403 228.324,282.821 228.000,282.975 228.000 C 283.410 228.000,284.400 226.908,284.400 226.429 C 284.400 226.193,284.668 226.000,284.995 226.000 C 285.889 226.000,289.600 222.729,289.600 221.941 C 289.600 221.753,289.793 221.600,290.029 221.600 C 290.673 221.600,291.684 220.459,291.419 220.031 C 291.291 219.824,291.370 219.542,291.593 219.404 C 291.817 219.266,292.000 219.383,292.000 219.665 C 292.000 219.947,292.308 219.733,292.684 219.189 C 293.590 217.877,294.269 217.200,294.676 217.200 C 294.860 217.200,295.368 216.720,295.805 216.134 C 296.242 215.548,296.825 214.841,297.100 214.563 C 297.375 214.285,297.600 213.774,297.600 213.429 C 297.600 213.083,297.827 212.800,298.105 212.800 C 298.383 212.800,298.968 212.320,299.405 211.734 C 299.842 211.148,300.387 210.473,300.614 210.234 C 300.842 209.995,301.560 209.080,302.210 208.200 C 302.860 207.320,303.708 206.309,304.096 205.953 C 304.483 205.597,304.800 205.094,304.800 204.834 C 304.800 204.574,305.250 203.945,305.800 203.435 C 306.350 202.925,306.800 202.254,306.800 201.942 C 306.800 201.631,307.160 201.117,307.600 200.800 C 308.040 200.483,308.400 199.853,308.400 199.400 C 308.400 198.947,308.769 198.312,309.219 197.988 C 309.669 197.665,310.517 196.455,311.103 195.300 C 311.688 194.145,312.310 193.200,312.484 193.200 C 312.658 193.200,312.800 192.750,312.800 192.200 C 312.800 191.578,313.027 191.200,313.400 191.200 C 313.733 191.200,314.000 190.844,314.000 190.400 C 314.000 189.960,314.180 189.600,314.400 189.600 C 314.620 189.600,314.800 189.240,314.800 188.800 C 314.800 188.360,314.980 188.000,315.200 188.000 C 315.420 188.000,315.600 187.550,315.600 187.000 C 315.600 186.450,315.780 186.000,316.000 186.000 C 316.220 186.000,316.400 185.659,316.400 185.243 C 316.400 184.826,316.670 184.382,317.000 184.255 C 317.330 184.129,317.600 183.659,317.600 183.213 C 317.600 182.766,317.780 182.400,318.000 182.400 C 318.220 182.400,318.400 182.128,318.400 181.795 C 318.400 181.462,318.608 180.787,318.862 180.295 C 319.856 178.374,320.000 177.984,320.000 177.229 C 320.000 176.799,320.196 176.326,320.435 176.178 C 320.674 176.031,320.779 175.562,320.668 175.138 C 320.541 174.651,320.749 174.189,321.233 173.887 C 321.655 173.623,322.000 173.011,322.000 172.527 C 322.000 172.043,322.180 171.536,322.400 171.400 C 322.620 171.264,322.800 170.623,322.800 169.976 C 322.800 169.329,322.962 168.800,323.160 168.800 C 323.358 168.800,323.520 168.131,323.520 167.313 C 323.520 166.496,323.718 165.761,323.960 165.680 C 324.202 165.599,324.400 164.995,324.400 164.338 C 324.400 163.681,324.670 162.873,325.000 162.543 C 325.330 162.213,325.600 161.326,325.600 160.571 C 325.600 159.817,325.780 159.200,326.000 159.200 C 326.220 159.200,326.400 158.401,326.400 157.424 C 326.400 156.447,326.580 155.536,326.800 155.400 C 327.020 155.264,327.200 154.083,327.200 152.776 C 327.200 151.459,327.378 150.400,327.600 150.400 C 327.833 150.400,328.000 149.078,328.000 147.233 C 328.000 145.056,328.156 144.015,328.500 143.900 C 328.888 143.770,329.000 140.311,329.000 128.400 C 329.000 116.489,328.888 113.029,328.500 112.900 C 328.160 112.787,328.000 111.784,328.000 109.767 C 328.000 108.056,327.831 106.800,327.600 106.800 C 327.378 106.800,327.200 105.741,327.200 104.424 C 327.200 103.117,327.020 101.936,326.800 101.800 C 326.580 101.664,326.400 100.764,326.400 99.800 C 326.400 98.836,326.220 97.936,326.000 97.800 C 325.780 97.664,325.600 96.946,325.600 96.205 C 325.600 95.464,325.330 94.587,325.000 94.257 C 324.670 93.927,324.400 93.194,324.400 92.629 C 324.400 92.063,324.220 91.600,324.000 91.600 C 323.780 91.600,323.600 90.790,323.600 89.800 C 323.600 88.810,323.420 88.000,323.200 88.000 C 322.980 88.000,322.800 87.471,322.800 86.824 C 322.800 86.177,322.620 85.536,322.400 85.400 C 322.180 85.264,322.000 84.825,322.000 84.425 C 322.000 84.025,321.730 83.474,321.400 83.200 C 321.070 82.926,320.800 82.274,320.800 81.751 C 320.800 81.228,320.620 80.800,320.400 80.800 C 320.180 80.800,320.000 80.260,320.000 79.600 C 320.000 78.940,319.820 78.400,319.600 78.400 C 319.380 78.400,319.200 77.950,319.200 77.400 C 319.200 76.850,319.020 76.400,318.800 76.400 C 318.580 76.400,318.400 76.051,318.400 75.624 C 318.400 75.197,318.220 74.736,318.000 74.600 C 317.780 74.464,317.600 74.003,317.600 73.576 C 317.600 73.149,317.330 72.800,317.000 72.800 C 316.627 72.800,316.400 72.422,316.400 71.800 C 316.400 71.250,316.220 70.800,316.000 70.800 C 315.780 70.800,315.600 70.440,315.600 70.000 C 315.600 69.560,315.420 69.200,315.200 69.200 C 314.980 69.200,314.800 68.958,314.800 68.661 C 314.800 67.859,313.598 65.600,313.171 65.600 C 312.967 65.600,312.800 65.240,312.800 64.800 C 312.800 64.360,312.654 64.000,312.475 64.000 C 312.296 64.000,311.902 63.370,311.600 62.600 C 311.298 61.830,310.904 61.200,310.725 61.200 C 310.546 61.200,310.400 60.865,310.400 60.456 C 310.400 60.047,309.950 59.374,309.400 58.961 C 308.850 58.548,308.400 57.893,308.400 57.505 C 308.400 57.117,308.220 56.800,308.000 56.800 C 307.780 56.800,307.600 56.530,307.600 56.200 C 307.600 55.870,307.420 55.600,307.200 55.600 C 306.980 55.600,306.800 55.317,306.800 54.971 C 306.800 54.244,306.101 53.469,305.107 53.093 C 304.725 52.948,304.505 52.593,304.616 52.303 C 304.727 52.013,304.185 51.061,303.411 50.188 C 301.421 47.941,301.200 47.663,301.200 47.404 C 301.200 46.996,298.233 44.196,297.911 44.300 C 297.740 44.355,297.600 44.048,297.600 43.617 C 297.600 42.799,287.744 32.518,287.135 32.700 C 286.951 32.755,286.800 32.560,286.800 32.268 C 286.800 31.975,286.305 31.481,285.700 31.170 C 285.095 30.860,284.309 30.289,283.953 29.903 C 283.597 29.516,283.102 29.200,282.853 29.200 C 282.604 29.200,282.400 28.996,282.400 28.747 C 282.400 28.171,280.363 26.401,279.700 26.400 C 279.425 26.400,279.200 26.220,279.200 26.000 C 279.200 25.780,278.930 25.600,278.600 25.600 C 278.270 25.600,278.000 25.345,278.000 25.034 C 278.000 24.722,277.460 24.228,276.800 23.936 C 276.140 23.644,275.600 23.269,275.600 23.102 C 275.600 22.936,275.330 22.800,275.000 22.800 C 274.670 22.800,274.400 22.620,274.400 22.400 C 274.400 22.180,274.040 22.000,273.600 22.000 C 273.142 22.000,272.800 21.733,272.800 21.376 C 272.800 21.033,272.639 20.852,272.442 20.974 C 272.245 21.096,271.981 20.926,271.854 20.598 C 271.728 20.269,271.299 20.000,270.901 20.000 C 270.503 20.000,269.917 19.640,269.600 19.200 C 269.283 18.760,268.703 18.400,268.312 18.400 C 267.920 18.400,267.600 18.220,267.600 18.000 C 267.600 17.780,267.330 17.600,267.000 17.600 C 266.670 17.600,266.399 17.465,266.397 17.300 C 266.394 16.898,264.081 15.600,263.368 15.600 C 263.055 15.600,262.800 15.420,262.800 15.200 C 262.800 14.980,262.440 14.800,262.000 14.800 C 261.560 14.800,261.200 14.620,261.200 14.400 C 261.200 14.180,260.750 14.000,260.200 14.000 C 259.578 14.000,259.200 13.773,259.200 13.400 C 259.200 13.067,258.844 12.800,258.400 12.800 C 257.960 12.800,257.600 12.620,257.600 12.400 C 257.600 12.180,257.251 12.000,256.824 12.000 C 256.397 12.000,255.936 11.820,255.800 11.600 C 255.664 11.380,255.203 11.200,254.776 11.200 C 254.349 11.200,254.000 11.020,254.000 10.800 C 254.000 10.580,253.662 10.400,253.249 10.400 C 252.836 10.400,252.270 10.126,251.992 9.790 C 251.714 9.455,251.398 9.269,251.290 9.376 C 251.183 9.484,250.719 9.308,250.258 8.986 C 249.798 8.664,249.012 8.400,248.511 8.400 C 248.010 8.400,247.600 8.220,247.600 8.000 C 247.600 7.780,247.161 7.600,246.624 7.600 C 246.087 7.600,245.536 7.420,245.400 7.200 C 245.264 6.980,244.713 6.800,244.176 6.800 C 243.639 6.800,243.200 6.620,243.200 6.400 C 243.200 6.180,242.589 6.000,241.843 6.000 C 241.005 6.000,240.397 5.770,240.255 5.400 C 240.111 5.023,239.499 4.800,238.613 4.800 C 237.836 4.800,237.200 4.620,237.200 4.400 C 237.200 4.180,236.570 4.000,235.800 4.000 C 235.030 4.000,234.400 3.820,234.400 3.600 C 234.400 3.380,233.590 3.200,232.600 3.200 C 231.610 3.200,230.800 3.020,230.800 2.800 C 230.800 2.580,230.012 2.400,229.049 2.400 C 227.980 2.400,227.104 2.166,226.800 1.800 C 226.475 1.408,225.584 1.200,224.231 1.200 C 223.092 1.200,221.939 0.979,221.670 0.710 C 221.183 0.223,188.982 -0.126,181.600 0.276 M200.400 43.600 C 200.400 43.848,202.586 44.000,206.157 44.000 C 210.906 44.000,211.955 44.105,212.145 44.600 C 212.310 45.032,212.987 45.200,214.564 45.200 C 215.768 45.200,216.864 45.380,217.000 45.600 C 217.136 45.820,218.137 46.000,219.224 46.000 C 220.311 46.000,221.200 46.180,221.200 46.400 C 221.200 46.620,221.740 46.800,222.400 46.800 C 223.060 46.800,223.600 46.980,223.600 47.200 C 223.600 47.420,224.153 47.600,224.829 47.600 C 225.504 47.600,226.327 47.870,226.657 48.200 C 226.987 48.530,227.694 48.800,228.229 48.800 C 228.763 48.800,229.200 48.980,229.200 49.200 C 229.200 49.420,229.729 49.600,230.376 49.600 C 231.023 49.600,231.664 49.780,231.800 50.000 C 231.936 50.220,232.397 50.400,232.824 50.400 C 233.251 50.400,233.600 50.580,233.600 50.800 C 233.600 51.020,233.960 51.200,234.400 51.200 C 234.840 51.200,235.200 51.380,235.200 51.600 C 235.200 51.820,235.631 52.000,236.157 52.000 C 236.684 52.000,237.218 52.270,237.345 52.600 C 237.471 52.930,237.851 53.200,238.187 53.200 C 238.524 53.200,238.800 53.380,238.800 53.600 C 238.800 53.820,239.250 54.000,239.800 54.000 C 240.350 54.000,240.800 54.180,240.800 54.400 C 240.800 54.620,241.160 54.800,241.600 54.800 C 242.040 54.800,242.400 54.980,242.400 55.200 C 242.400 55.420,242.627 55.600,242.904 55.600 C 243.181 55.600,243.893 56.050,244.487 56.600 C 245.080 57.150,245.843 57.600,246.183 57.600 C 246.522 57.600,246.800 57.750,246.800 57.932 C 246.800 58.115,247.295 58.513,247.900 58.816 C 248.505 59.119,249.405 59.808,249.900 60.346 C 250.395 60.884,250.800 61.197,250.800 61.042 C 250.800 60.886,251.226 61.218,251.746 61.779 C 252.266 62.341,252.909 62.800,253.174 62.800 C 253.772 62.800,254.800 63.793,254.800 64.371 C 254.800 64.607,254.978 64.800,255.195 64.800 C 255.701 64.800,265.600 74.649,265.600 75.153 C 265.600 75.361,266.185 76.139,266.900 76.881 C 267.615 77.623,268.469 78.764,268.797 79.415 C 269.126 80.067,269.756 80.930,270.197 81.334 C 270.639 81.737,271.000 82.187,271.001 82.334 C 271.001 82.480,271.406 83.168,271.901 83.862 C 272.395 84.556,272.800 85.321,272.800 85.562 C 272.800 85.803,272.980 86.000,273.200 86.000 C 273.420 86.000,273.600 86.366,273.600 86.813 C 273.600 87.259,273.880 87.733,274.223 87.864 C 274.566 87.996,274.749 88.357,274.630 88.667 C 274.511 88.977,274.680 89.333,275.007 89.458 C 275.333 89.583,275.600 90.016,275.600 90.419 C 275.600 90.823,275.780 91.264,276.000 91.400 C 276.220 91.536,276.400 91.997,276.400 92.424 C 276.400 92.851,276.580 93.200,276.800 93.200 C 277.020 93.200,277.200 93.549,277.200 93.976 C 277.200 94.403,277.380 94.864,277.600 95.000 C 277.820 95.136,278.000 95.597,278.000 96.024 C 278.000 96.451,278.270 96.800,278.600 96.800 C 279.019 96.800,279.200 97.222,279.200 98.200 C 279.200 98.970,279.380 99.600,279.600 99.600 C 279.820 99.600,280.000 100.140,280.000 100.800 C 280.000 101.460,280.180 102.000,280.400 102.000 C 280.620 102.000,280.800 102.630,280.800 103.400 C 280.800 104.170,280.980 104.800,281.200 104.800 C 281.420 104.800,281.600 105.415,281.600 106.167 C 281.600 106.918,281.824 107.608,282.099 107.700 C 282.396 107.799,282.619 108.655,282.650 109.817 C 282.679 110.890,282.905 111.835,283.151 111.917 C 283.408 112.003,283.600 112.982,283.600 114.210 C 283.600 115.388,283.780 116.464,284.000 116.600 C 284.252 116.756,284.400 121.204,284.400 128.624 C 284.400 136.208,284.258 140.400,284.000 140.400 C 283.778 140.400,283.600 141.467,283.600 142.800 C 283.600 144.300,283.433 145.200,283.153 145.200 C 282.904 145.200,282.799 145.553,282.916 146.001 C 283.042 146.483,282.964 146.701,282.720 146.551 C 282.460 146.390,282.408 146.727,282.575 147.486 C 282.758 148.317,282.651 148.826,282.218 149.185 C 281.878 149.467,281.600 150.205,281.600 150.825 C 281.600 151.445,281.420 152.064,281.200 152.200 C 280.980 152.336,280.800 152.977,280.800 153.624 C 280.800 154.271,280.620 154.800,280.400 154.800 C 280.180 154.800,280.000 155.430,280.000 156.200 C 280.000 156.970,279.820 157.600,279.600 157.600 C 279.380 157.600,279.200 158.146,279.200 158.813 C 279.200 159.521,278.951 160.121,278.600 160.255 C 278.270 160.382,278.000 160.826,278.000 161.243 C 278.000 161.659,277.820 162.000,277.600 162.000 C 277.380 162.000,277.200 162.349,277.200 162.776 C 277.200 163.203,277.020 163.664,276.800 163.800 C 276.580 163.936,276.400 164.397,276.400 164.824 C 276.400 165.251,276.220 165.600,276.000 165.600 C 275.780 165.600,275.600 165.960,275.600 166.400 C 275.600 166.840,275.423 167.200,275.208 167.200 C 274.992 167.200,274.702 167.650,274.564 168.200 C 274.426 168.750,274.153 169.200,273.957 169.200 C 273.760 169.200,273.600 169.560,273.600 170.000 C 273.600 170.440,273.420 170.800,273.200 170.800 C 272.980 170.800,272.800 171.070,272.800 171.400 C 272.800 171.730,272.620 172.000,272.400 172.000 C 272.180 172.000,272.000 172.283,272.000 172.629 C 272.000 172.974,271.728 173.529,271.396 173.861 C 271.064 174.193,270.895 174.630,271.020 174.832 C 271.145 175.035,270.967 175.200,270.624 175.200 C 270.281 175.200,270.000 175.470,270.000 175.800 C 270.000 176.130,269.850 176.400,269.668 176.400 C 269.485 176.400,269.080 176.895,268.768 177.500 C 268.455 178.105,267.615 179.213,266.900 179.961 C 266.185 180.710,265.600 181.483,265.600 181.678 C 265.600 181.874,265.246 182.413,264.814 182.877 C 264.381 183.341,264.122 183.874,264.237 184.061 C 264.353 184.247,264.066 184.400,263.600 184.400 C 263.134 184.400,262.864 184.580,263.000 184.800 C 263.136 185.020,263.102 185.200,262.924 185.200 C 262.500 185.201,260.400 187.011,260.400 187.375 C 260.400 187.720,259.350 188.800,259.015 188.800 C 258.471 188.800,255.979 191.642,256.204 192.006 C 256.338 192.223,256.143 192.400,255.771 192.400 C 255.398 192.400,254.803 192.716,254.447 193.103 C 254.091 193.489,253.294 194.066,252.675 194.384 C 252.056 194.702,251.258 195.456,250.901 196.059 C 250.545 196.663,250.113 197.070,249.942 196.964 C 249.491 196.685,246.811 198.510,246.805 199.100 C 246.802 199.375,246.440 199.600,246.000 199.600 C 245.560 199.600,245.200 199.746,245.200 199.925 C 245.200 200.104,244.570 200.498,243.800 200.800 C 243.030 201.102,242.400 201.496,242.400 201.675 C 242.400 201.854,242.059 202.000,241.643 202.000 C 241.226 202.000,240.778 202.281,240.646 202.625 C 240.514 202.969,240.245 203.151,240.048 203.030 C 239.852 202.908,239.468 203.077,239.196 203.404 C 238.924 203.732,238.364 204.000,237.951 204.000 C 237.538 204.000,237.200 204.180,237.200 204.400 C 237.200 204.620,236.750 204.800,236.200 204.800 C 235.650 204.800,235.200 204.980,235.200 205.200 C 235.200 205.420,234.840 205.600,234.400 205.600 C 233.960 205.600,233.600 205.780,233.600 206.000 C 233.600 206.220,233.169 206.400,232.643 206.400 C 232.116 206.400,231.582 206.670,231.455 207.000 C 231.329 207.330,230.769 207.600,230.213 207.600 C 229.656 207.600,229.200 207.780,229.200 208.000 C 229.200 208.220,228.570 208.400,227.800 208.400 C 227.030 208.400,226.400 208.580,226.400 208.800 C 226.400 209.020,225.770 209.200,225.000 209.200 C 224.230 209.200,223.600 209.380,223.600 209.600 C 223.600 209.820,223.082 210.000,222.449 210.000 C 221.816 210.000,221.074 210.270,220.800 210.600 C 220.496 210.966,219.620 211.200,218.551 211.200 C 217.588 211.200,216.800 211.380,216.800 211.600 C 216.800 211.821,215.760 212.000,214.480 212.000 C 213.204 212.000,211.971 212.189,211.739 212.421 C 211.487 212.673,209.262 212.836,206.191 212.828 C 203.022 212.820,200.860 212.984,200.532 213.257 C 200.144 213.578,199.856 213.578,199.468 213.257 C 199.140 212.984,196.978 212.820,193.809 212.828 C 190.738 212.836,188.513 212.673,188.261 212.421 C 188.029 212.189,186.897 212.000,185.744 212.000 C 184.591 212.000,183.536 211.820,183.400 211.600 C 183.264 211.380,182.375 211.200,181.425 211.200 C 180.378 211.200,179.502 210.964,179.200 210.600 C 178.926 210.270,178.184 210.000,177.551 210.000 C 176.918 210.000,176.400 209.820,176.400 209.600 C 176.400 209.380,175.770 209.200,175.000 209.200 C 174.230 209.200,173.600 209.020,173.600 208.800 C 173.600 208.580,172.970 208.400,172.200 208.400 C 171.430 208.400,170.800 208.220,170.800 208.000 C 170.800 207.780,170.344 207.600,169.787 207.600 C 169.231 207.600,168.671 207.330,168.545 207.000 C 168.418 206.670,167.884 206.400,167.357 206.400 C 166.831 206.400,166.400 206.220,166.400 206.000 C 166.400 205.780,166.040 205.600,165.600 205.600 C 165.160 205.600,164.800 205.420,164.800 205.200 C 164.800 204.980,164.350 204.800,163.800 204.800 C 163.250 204.800,162.800 204.620,162.800 204.400 C 162.800 204.180,162.517 204.000,162.171 204.000 C 161.826 204.000,161.271 203.728,160.939 203.396 C 160.607 203.064,160.169 202.896,159.965 203.022 C 159.761 203.148,159.486 202.969,159.354 202.625 C 159.222 202.281,158.774 202.000,158.357 202.000 C 157.941 202.000,157.600 201.820,157.600 201.600 C 157.600 201.380,157.330 201.200,157.000 201.200 C 156.670 201.200,156.400 201.020,156.400 200.800 C 156.400 200.580,156.040 200.400,155.600 200.400 C 155.160 200.400,154.800 200.220,154.800 200.000 C 154.800 199.780,154.440 199.600,154.000 199.600 C 153.560 199.600,153.198 199.375,153.195 199.100 C 153.191 198.668,150.769 196.800,150.213 196.800 C 150.104 196.800,149.366 196.170,148.573 195.400 C 147.780 194.630,146.917 194.000,146.654 194.000 C 146.391 194.000,145.917 193.640,145.600 193.200 C 145.283 192.760,144.793 192.400,144.512 192.400 C 144.230 192.400,144.000 192.214,144.000 191.987 C 144.000 191.550,141.398 188.800,140.985 188.800 C 140.671 188.800,139.600 187.729,139.600 187.415 C 139.600 187.040,136.870 184.400,136.481 184.400 C 136.291 184.400,135.894 183.950,135.600 183.400 C 135.306 182.850,134.915 182.400,134.732 182.400 C 134.550 182.400,134.400 182.158,134.400 181.861 C 134.400 181.565,133.815 180.710,133.100 179.961 C 132.385 179.213,131.545 178.105,131.232 177.500 C 130.920 176.895,130.515 176.400,130.332 176.400 C 130.150 176.400,130.000 176.130,130.000 175.800 C 130.000 175.470,129.820 175.200,129.600 175.200 C 129.380 175.200,129.200 174.924,129.200 174.587 C 129.200 174.251,128.961 173.883,128.668 173.771 C 128.376 173.659,127.892 172.944,127.593 172.183 C 127.295 171.423,126.904 170.800,126.725 170.800 C 126.546 170.800,126.400 170.440,126.400 170.000 C 126.400 169.560,126.240 169.200,126.043 169.200 C 125.847 169.200,125.574 168.750,125.436 168.200 C 125.298 167.650,125.008 167.200,124.792 167.200 C 124.577 167.200,124.400 166.840,124.400 166.400 C 124.400 165.960,124.220 165.600,124.000 165.600 C 123.780 165.600,123.600 165.251,123.600 164.824 C 123.600 164.397,123.420 163.936,123.200 163.800 C 122.980 163.664,122.800 163.203,122.800 162.776 C 122.800 162.349,122.620 162.000,122.400 162.000 C 122.180 162.000,122.000 161.722,122.000 161.383 C 122.000 161.044,121.660 160.402,121.245 159.956 C 120.813 159.493,120.576 158.814,120.691 158.372 C 120.802 157.948,120.692 157.600,120.447 157.600 C 120.201 157.600,120.000 156.970,120.000 156.200 C 120.000 155.430,119.820 154.800,119.600 154.800 C 119.380 154.800,119.200 154.271,119.200 153.624 C 119.200 152.977,119.020 152.336,118.800 152.200 C 118.580 152.064,118.400 151.434,118.400 150.800 C 118.400 150.166,118.220 149.536,118.000 149.400 C 117.780 149.264,117.600 148.456,117.600 147.605 C 117.600 146.754,117.330 145.787,117.000 145.457 C 116.612 145.069,116.400 144.079,116.400 142.652 C 116.400 141.439,116.220 140.336,116.000 140.200 C 115.748 140.044,115.600 135.670,115.600 128.400 C 115.600 121.130,115.748 116.756,116.000 116.600 C 116.220 116.464,116.400 115.388,116.400 114.210 C 116.400 112.976,116.591 112.003,116.851 111.916 C 117.099 111.834,117.392 110.829,117.502 109.683 C 117.612 108.537,117.859 107.600,118.051 107.600 C 118.243 107.600,118.400 106.970,118.400 106.200 C 118.400 105.430,118.580 104.800,118.800 104.800 C 119.020 104.800,119.200 104.170,119.200 103.400 C 119.200 102.630,119.380 102.000,119.600 102.000 C 119.820 102.000,120.000 101.460,120.000 100.800 C 120.000 100.140,120.180 99.600,120.400 99.600 C 120.620 99.600,120.800 99.054,120.800 98.387 C 120.800 97.679,121.049 97.079,121.400 96.945 C 121.730 96.818,122.000 96.384,122.000 95.981 C 122.000 95.577,122.180 95.136,122.400 95.000 C 122.620 94.864,122.800 94.403,122.800 93.976 C 122.800 93.549,122.980 93.200,123.200 93.200 C 123.420 93.200,123.600 92.851,123.600 92.424 C 123.600 91.997,123.792 91.528,124.027 91.383 C 124.262 91.238,124.359 90.870,124.242 90.566 C 124.125 90.260,124.395 89.817,124.846 89.575 C 125.295 89.335,125.569 88.897,125.456 88.602 C 125.343 88.308,125.509 87.967,125.825 87.846 C 126.141 87.724,126.400 87.259,126.400 86.813 C 126.400 86.366,126.559 86.000,126.753 86.000 C 126.948 86.000,127.202 85.636,127.318 85.191 C 127.435 84.746,127.570 84.251,127.619 84.091 C 127.668 83.931,128.043 83.565,128.454 83.277 C 128.864 82.990,129.200 82.495,129.200 82.177 C 129.200 81.860,129.399 81.600,129.643 81.600 C 129.886 81.600,129.986 81.339,129.863 81.020 C 129.715 80.633,129.833 80.515,130.220 80.663 C 130.578 80.801,130.800 80.640,130.800 80.243 C 130.800 79.889,130.980 79.600,131.200 79.600 C 131.420 79.600,131.600 79.240,131.600 78.800 C 131.600 78.360,131.780 78.000,132.000 78.000 C 132.220 78.000,132.400 77.730,132.400 77.400 C 132.400 77.070,132.585 76.845,132.810 76.900 C 133.036 76.955,133.531 76.460,133.910 75.801 C 134.290 75.142,134.912 74.313,135.293 73.960 C 135.674 73.608,135.869 73.202,135.726 73.059 C 135.583 72.917,135.705 72.800,135.997 72.800 C 136.288 72.800,138.287 71.000,140.439 68.800 C 142.590 66.600,144.541 64.800,144.775 64.800 C 145.009 64.800,145.200 64.607,145.200 64.371 C 145.200 63.805,146.223 62.800,146.800 62.800 C 147.051 62.800,147.485 62.575,147.763 62.300 C 148.041 62.025,148.762 61.440,149.366 61.000 C 150.446 60.214,151.104 59.692,152.771 58.300 C 153.232 57.915,153.837 57.600,154.116 57.600 C 154.395 57.600,154.876 57.250,155.185 56.821 C 155.493 56.393,155.893 56.134,156.073 56.245 C 156.253 56.356,156.400 56.257,156.400 56.024 C 156.400 55.791,156.670 55.600,157.000 55.600 C 157.330 55.600,157.600 55.420,157.600 55.200 C 157.600 54.980,157.960 54.800,158.400 54.800 C 158.840 54.800,159.200 54.620,159.200 54.400 C 159.200 54.180,159.650 54.000,160.200 54.000 C 160.750 54.000,161.200 53.820,161.200 53.600 C 161.200 53.380,161.560 53.200,162.000 53.200 C 162.444 53.200,162.800 52.933,162.800 52.600 C 162.800 52.227,163.178 52.000,163.800 52.000 C 164.350 52.000,164.800 51.820,164.800 51.600 C 164.800 51.380,165.160 51.200,165.600 51.200 C 166.040 51.200,166.400 51.020,166.400 50.800 C 166.400 50.580,166.850 50.400,167.400 50.400 C 167.950 50.400,168.400 50.220,168.400 50.000 C 168.400 49.780,168.940 49.600,169.600 49.600 C 170.260 49.600,170.800 49.420,170.800 49.200 C 170.800 48.980,171.237 48.800,171.771 48.800 C 172.306 48.800,173.013 48.530,173.343 48.200 C 173.673 47.870,174.496 47.600,175.171 47.600 C 175.847 47.600,176.400 47.420,176.400 47.200 C 176.400 46.980,177.030 46.800,177.800 46.800 C 178.570 46.800,179.200 46.620,179.200 46.400 C 179.200 46.180,180.100 46.000,181.200 46.000 C 182.300 46.000,183.200 45.820,183.200 45.600 C 183.200 45.380,184.196 45.200,185.413 45.200 C 187.010 45.200,187.689 45.033,187.855 44.600 C 188.045 44.105,189.094 44.000,193.843 44.000 C 197.414 44.000,199.600 43.848,199.600 43.600 C 199.600 43.380,199.780 43.200,200.000 43.200 C 200.220 43.200,200.400 43.380,200.400 43.600 M105.000 271.200 C 104.864 271.420,103.525 271.600,102.025 271.600 C 100.202 271.600,99.147 271.782,98.842 272.149 C 98.551 272.500,97.738 272.660,96.589 272.592 C 95.379 272.520,94.690 272.667,94.480 273.042 C 94.301 273.362,93.445 273.628,92.467 273.666 C 91.531 273.703,90.673 273.883,90.559 274.066 C 90.446 274.250,89.643 274.400,88.776 274.400 C 87.909 274.400,87.200 274.580,87.200 274.800 C 87.200 275.020,86.491 275.200,85.624 275.200 C 84.757 275.200,83.936 275.380,83.800 275.600 C 83.664 275.820,83.126 276.000,82.605 276.000 C 82.084 276.000,81.387 276.270,81.057 276.600 C 80.727 276.930,79.994 277.200,79.429 277.200 C 78.863 277.200,78.400 277.380,78.400 277.600 C 78.400 277.820,77.950 278.000,77.400 278.000 C 76.850 278.000,76.400 278.180,76.400 278.400 C 76.400 278.620,75.995 278.797,75.500 278.794 C 74.580 278.787,70.308 280.758,70.067 281.300 C 69.993 281.465,69.408 281.600,68.767 281.600 C 68.007 281.600,67.600 281.805,67.600 282.187 C 67.600 282.519,67.363 282.684,67.054 282.565 C 66.754 282.450,65.899 282.718,65.154 283.161 C 64.409 283.604,63.215 284.264,62.500 284.629 C 61.785 284.993,61.200 285.451,61.200 285.646 C 61.200 285.841,60.851 286.000,60.424 286.000 C 59.997 286.000,59.536 286.180,59.400 286.400 C 59.264 286.620,58.886 286.800,58.559 286.800 C 58.232 286.800,57.495 287.236,56.919 287.770 C 56.344 288.303,55.092 289.141,54.137 289.632 C 53.182 290.124,52.400 290.677,52.400 290.863 C 52.400 291.048,52.168 291.200,51.883 291.200 C 51.599 291.200,50.699 291.830,49.882 292.600 C 49.066 293.370,48.137 294.000,47.817 294.000 C 47.171 294.000,45.200 295.821,45.200 296.418 C 45.200 296.628,44.840 296.800,44.400 296.800 C 43.960 296.800,43.600 296.980,43.600 297.200 C 43.600 297.420,43.412 297.600,43.182 297.600 C 42.639 297.600,40.800 299.439,40.800 299.982 C 40.800 300.212,40.626 300.400,40.413 300.400 C 40.054 300.400,38.387 301.776,36.174 303.900 C 35.658 304.395,35.125 304.800,34.990 304.800 C 34.583 304.800,33.600 305.911,33.600 306.371 C 33.600 306.607,33.420 306.800,33.200 306.800 C 32.980 306.800,32.800 307.081,32.800 307.424 C 32.800 307.767,32.620 307.936,32.400 307.800 C 32.180 307.664,32.000 307.706,32.000 307.893 C 32.000 308.080,31.370 308.901,30.600 309.718 C 29.830 310.534,29.200 311.381,29.200 311.601 C 29.200 311.820,29.012 312.000,28.782 312.000 C 28.239 312.000,26.400 313.839,26.400 314.382 C 26.400 314.612,26.220 314.800,26.000 314.800 C 25.780 314.800,25.600 315.160,25.600 315.600 C 25.600 316.040,25.465 316.400,25.300 316.400 C 24.656 316.402,22.800 318.331,22.800 319.000 C 22.800 319.389,22.305 320.133,21.700 320.653 C 21.095 321.173,20.748 321.599,20.929 321.600 C 21.109 321.600,20.964 321.893,20.606 322.252 C 20.247 322.610,20.052 323.159,20.172 323.472 C 20.294 323.790,20.215 323.933,19.992 323.795 C 19.513 323.499,18.400 324.530,18.400 325.271 C 18.399 325.729,17.898 326.444,16.008 328.683 C 15.784 328.949,15.600 329.544,15.600 330.007 C 15.600 330.469,15.420 330.736,15.200 330.600 C 14.980 330.464,14.800 330.722,14.800 331.173 C 14.800 331.625,14.427 332.423,13.970 332.948 C 12.987 334.079,11.200 337.510,11.200 338.268 C 11.200 338.561,11.020 338.800,10.800 338.800 C 10.580 338.800,10.400 339.321,10.400 339.957 C 10.400 340.600,10.142 341.214,9.819 341.337 C 9.489 341.464,9.306 341.914,9.396 342.380 C 9.496 342.901,9.343 343.200,8.977 343.200 C 8.660 343.200,8.400 343.560,8.400 344.000 C 8.400 344.440,8.220 344.800,8.000 344.800 C 7.780 344.800,7.600 345.430,7.600 346.200 C 7.600 346.970,7.420 347.600,7.200 347.600 C 6.980 347.600,6.800 347.949,6.800 348.376 C 6.800 348.803,6.620 349.264,6.400 349.400 C 6.180 349.536,6.000 350.157,6.000 350.781 C 6.000 351.419,5.738 352.015,5.400 352.145 C 5.049 352.279,4.800 352.879,4.800 353.587 C 4.800 354.254,4.620 354.800,4.400 354.800 C 4.180 354.800,4.000 355.610,4.000 356.600 C 4.000 357.590,3.820 358.400,3.600 358.400 C 3.380 358.400,3.200 359.120,3.200 360.000 C 3.200 360.880,3.020 361.600,2.800 361.600 C 2.580 361.600,2.400 362.391,2.400 363.357 C 2.400 364.550,2.207 365.188,1.800 365.345 C 1.368 365.510,1.200 366.186,1.200 367.754 C 1.200 369.142,1.018 369.994,0.700 370.100 C -0.033 370.344,-0.033 426.455,0.700 426.700 C 0.975 426.792,1.200 427.397,1.200 428.046 C 1.200 428.725,1.454 429.323,1.800 429.455 C 2.130 429.582,2.400 430.016,2.400 430.419 C 2.400 430.823,2.580 431.264,2.800 431.400 C 3.020 431.536,3.200 431.946,3.200 432.312 C 3.200 433.373,4.951 436.785,5.500 436.793 C 5.775 436.797,6.000 437.160,6.000 437.600 C 6.000 438.040,6.180 438.400,6.400 438.400 C 6.620 438.400,6.800 438.670,6.800 439.000 C 6.800 439.330,6.980 439.600,7.200 439.600 C 7.420 439.600,7.600 439.825,7.600 440.100 C 7.601 440.763,9.371 442.800,9.947 442.800 C 10.196 442.800,10.400 443.001,10.400 443.246 C 10.400 443.739,13.166 446.400,13.678 446.400 C 13.855 446.400,14.000 446.604,14.000 446.853 C 14.000 447.437,16.041 449.199,16.718 449.200 C 17.003 449.200,17.670 449.605,18.199 450.100 C 19.888 451.679,20.698 452.159,23.600 453.300 C 24.150 453.516,24.913 453.852,25.295 454.047 C 25.677 454.241,26.242 454.400,26.552 454.400 C 26.861 454.400,27.218 454.670,27.345 455.000 C 27.479 455.351,28.079 455.600,28.787 455.600 C 29.454 455.600,30.000 455.779,30.000 455.997 C 30.000 456.804,369.631 456.906,369.900 456.100 C 369.992 455.825,370.597 455.600,371.246 455.600 C 371.925 455.600,372.523 455.346,372.655 455.000 C 372.782 454.670,373.216 454.400,373.619 454.400 C 374.023 454.400,374.464 454.220,374.600 454.000 C 374.736 453.780,375.180 453.600,375.586 453.600 C 376.384 453.600,379.715 451.991,379.933 451.500 C 380.007 451.335,380.296 451.200,380.577 451.200 C 380.858 451.200,381.426 450.750,381.839 450.200 C 382.252 449.650,382.862 449.200,383.195 449.200 C 383.939 449.199,386.000 447.475,386.000 446.853 C 386.000 446.604,386.186 446.400,386.413 446.400 C 386.951 446.400,389.600 443.751,389.600 443.213 C 389.600 442.986,389.804 442.800,390.053 442.800 C 390.614 442.800,392.399 440.771,392.400 440.133 C 392.400 439.877,392.625 439.575,392.900 439.464 C 393.276 439.311,393.252 439.156,392.800 438.837 C 392.303 438.485,392.355 438.411,393.100 438.406 C 393.731 438.402,394.000 438.161,394.000 437.600 C 394.000 437.160,394.225 436.797,394.500 436.793 C 394.775 436.789,395.419 435.844,395.932 434.693 C 396.445 433.542,397.030 432.287,397.232 431.905 C 397.434 431.523,397.600 430.868,397.600 430.448 C 397.600 430.029,397.870 429.582,398.200 429.455 C 398.546 429.323,398.800 428.725,398.800 428.046 C 398.800 427.397,399.025 426.792,399.300 426.700 C 399.694 426.569,399.800 420.551,399.800 398.400 C 399.800 376.249,399.694 370.231,399.300 370.100 C 398.982 369.994,398.800 369.142,398.800 367.754 C 398.800 366.186,398.632 365.510,398.200 365.345 C 397.793 365.188,397.600 364.550,397.600 363.357 C 397.600 362.391,397.420 361.600,397.200 361.600 C 396.980 361.600,396.800 360.880,396.800 360.000 C 396.800 359.120,396.630 358.400,396.423 358.400 C 396.216 358.400,395.991 357.635,395.923 356.700 C 395.855 355.765,395.608 355.034,395.373 355.076 C 395.123 355.120,395.014 354.689,395.109 354.040 C 395.207 353.370,395.019 352.676,394.636 352.293 C 394.286 351.943,394.000 351.194,394.000 350.629 C 394.000 350.063,393.820 349.600,393.600 349.600 C 393.380 349.600,393.200 349.150,393.200 348.600 C 393.200 348.050,393.020 347.600,392.800 347.600 C 392.580 347.600,392.400 347.071,392.400 346.424 C 392.400 345.777,392.220 345.136,392.000 345.000 C 391.780 344.864,391.600 344.403,391.600 343.976 C 391.600 343.549,391.420 343.200,391.200 343.200 C 390.980 343.200,390.800 342.862,390.800 342.449 C 390.800 342.036,390.530 341.474,390.200 341.200 C 389.870 340.926,389.600 340.274,389.600 339.751 C 389.600 339.228,389.420 338.800,389.200 338.800 C 388.980 338.800,388.800 338.561,388.800 338.268 C 388.800 337.510,387.013 334.079,386.030 332.948 C 385.573 332.423,385.200 331.625,385.200 331.173 C 385.200 330.722,385.020 330.464,384.800 330.600 C 384.577 330.738,384.400 330.436,384.400 329.919 C 384.400 329.395,383.964 328.662,383.400 328.239 C 382.850 327.826,382.400 327.153,382.400 326.744 C 382.400 326.335,382.220 326.000,382.000 326.000 C 381.780 326.000,381.600 325.764,381.600 325.475 C 381.600 325.187,381.240 324.564,380.800 324.092 C 380.360 323.620,380.000 323.061,380.000 322.851 C 380.000 322.641,379.370 321.820,378.600 321.027 C 377.830 320.234,377.200 319.311,377.200 318.975 C 377.200 318.284,375.457 316.400,374.818 316.400 C 374.588 316.400,374.400 316.040,374.400 315.600 C 374.400 315.160,374.220 314.800,374.000 314.800 C 373.780 314.800,373.600 314.612,373.600 314.382 C 373.600 313.839,371.761 312.000,371.218 312.000 C 370.988 312.000,370.800 311.812,370.800 311.582 C 370.800 311.352,370.395 310.756,369.900 310.258 C 369.405 309.761,368.460 308.661,367.800 307.815 C 365.582 304.973,361.981 301.859,363.041 303.700 C 363.208 303.990,363.176 304.060,362.964 303.867 C 362.764 303.683,362.600 303.386,362.600 303.206 C 362.600 302.746,360.094 300.400,359.604 300.400 C 359.382 300.400,359.200 300.212,359.200 299.982 C 359.200 299.439,357.361 297.600,356.818 297.600 C 356.588 297.600,356.400 297.420,356.400 297.200 C 356.400 296.980,356.040 296.800,355.600 296.800 C 355.160 296.800,354.800 296.596,354.800 296.347 C 354.800 295.722,352.738 294.001,351.988 294.000 C 351.652 294.000,351.117 293.640,350.800 293.200 C 350.483 292.760,350.012 292.400,349.754 292.400 C 349.497 292.400,349.182 292.130,349.055 291.800 C 348.929 291.470,348.589 291.200,348.301 291.200 C 348.013 291.200,347.517 290.840,347.200 290.400 C 346.883 289.960,346.303 289.600,345.912 289.600 C 345.520 289.600,345.200 289.420,345.200 289.200 C 345.200 288.980,344.865 288.800,344.456 288.800 C 344.047 288.800,343.374 288.350,342.961 287.800 C 342.548 287.250,341.903 286.800,341.529 286.800 C 341.154 286.800,340.736 286.620,340.600 286.400 C 340.464 286.180,340.003 286.000,339.576 286.000 C 339.149 286.000,338.800 285.820,338.800 285.600 C 338.800 285.380,338.530 285.200,338.200 285.200 C 337.870 285.200,337.600 285.041,337.600 284.847 C 337.600 284.652,337.285 284.385,336.900 284.252 C 336.515 284.120,335.591 283.639,334.846 283.184 C 334.101 282.728,333.246 282.450,332.946 282.565 C 332.637 282.684,332.400 282.519,332.400 282.187 C 332.400 281.863,332.035 281.600,331.586 281.600 C 331.138 281.600,330.336 281.314,329.804 280.966 C 329.271 280.617,328.647 280.447,328.418 280.589 C 328.188 280.731,328.000 280.567,328.000 280.224 C 328.000 279.873,327.660 279.600,327.224 279.600 C 326.797 279.600,326.336 279.420,326.200 279.200 C 326.064 278.980,325.423 278.800,324.776 278.800 C 324.129 278.800,323.600 278.620,323.600 278.400 C 323.600 278.180,323.150 278.000,322.600 278.000 C 322.050 278.000,321.600 277.820,321.600 277.600 C 321.600 277.380,321.137 277.200,320.571 277.200 C 320.006 277.200,319.273 276.930,318.943 276.600 C 318.613 276.270,317.916 276.000,317.395 276.000 C 316.874 276.000,316.336 275.820,316.200 275.600 C 316.064 275.380,315.243 275.200,314.376 275.200 C 313.509 275.200,312.800 275.020,312.800 274.800 C 312.800 274.580,312.091 274.400,311.224 274.400 C 310.357 274.400,309.536 274.220,309.400 274.000 C 309.264 273.780,308.465 273.600,307.625 273.600 C 306.785 273.600,305.890 273.350,305.636 273.044 C 305.339 272.686,304.538 272.525,303.394 272.593 C 302.260 272.660,301.448 272.498,301.158 272.149 C 300.853 271.782,299.798 271.600,297.975 271.600 C 296.475 271.600,295.136 271.420,295.000 271.200 C 294.843 270.947,290.004 270.800,281.800 270.800 C 273.596 270.800,268.757 270.947,268.600 271.200 C 268.464 271.420,267.393 271.600,266.219 271.600 C 264.795 271.600,264.017 271.780,263.878 272.141 C 263.745 272.487,263.142 272.647,262.206 272.584 C 261.251 272.520,260.668 272.680,260.528 273.043 C 260.391 273.400,259.695 273.600,258.591 273.600 C 257.585 273.600,256.799 273.804,256.703 274.090 C 256.610 274.370,255.994 274.539,255.270 274.484 C 254.571 274.431,254.000 274.570,254.000 274.794 C 254.000 275.017,253.471 275.200,252.824 275.200 C 252.177 275.200,251.536 275.380,251.400 275.600 C 251.264 275.820,250.623 276.000,249.976 276.000 C 249.197 276.000,248.800 276.203,248.800 276.600 C 248.800 277.032,248.358 277.200,247.224 277.200 C 246.357 277.200,245.536 277.380,245.400 277.600 C 245.264 277.820,244.533 278.000,243.776 278.000 C 243.019 278.000,242.400 278.180,242.400 278.400 C 242.400 278.620,241.781 278.800,241.024 278.800 C 240.267 278.800,239.536 278.980,239.400 279.200 C 239.264 279.420,238.533 279.600,237.776 279.600 C 236.943 279.600,236.399 279.797,236.399 280.100 C 236.398 280.417,235.784 280.608,234.725 280.622 C 233.801 280.634,232.981 280.858,232.893 281.122 C 232.796 281.413,231.896 281.600,230.590 281.600 C 229.412 281.600,228.336 281.780,228.200 282.000 C 228.064 282.220,226.894 282.400,225.600 282.400 C 224.306 282.400,223.136 282.580,223.000 282.800 C 222.864 283.020,221.408 283.200,219.764 283.200 C 217.702 283.200,216.714 283.359,216.578 283.713 C 216.427 284.106,214.563 284.222,208.576 284.213 C 202.067 284.202,200.707 284.300,200.385 284.800 C 200.043 285.333,199.957 285.333,199.615 284.800 C 199.293 284.300,197.933 284.202,191.424 284.213 C 185.437 284.222,183.573 284.106,183.422 283.713 C 183.286 283.359,182.298 283.200,180.236 283.200 C 178.592 283.200,177.136 283.020,177.000 282.800 C 176.864 282.580,175.694 282.400,174.400 282.400 C 173.106 282.400,171.936 282.220,171.800 282.000 C 171.664 281.780,170.674 281.600,169.600 281.600 C 168.526 281.600,167.528 281.408,167.383 281.173 C 167.238 280.938,166.867 280.842,166.560 280.960 C 166.252 281.078,166.000 280.980,166.000 280.741 C 166.000 280.496,165.573 280.388,165.020 280.494 C 164.421 280.609,163.959 280.471,163.833 280.141 C 163.718 279.843,163.090 279.600,162.436 279.600 C 161.782 279.600,161.136 279.420,161.000 279.200 C 160.864 278.980,160.043 278.800,159.176 278.800 C 158.309 278.800,157.600 278.620,157.600 278.400 C 157.600 278.180,156.970 278.000,156.200 278.000 C 155.430 278.000,154.800 277.820,154.800 277.600 C 154.800 277.380,154.074 277.200,153.187 277.200 C 152.123 277.200,151.497 276.996,151.345 276.600 C 151.215 276.262,150.619 276.000,149.981 276.000 C 149.357 276.000,148.736 275.820,148.600 275.600 C 148.464 275.380,147.823 275.200,147.176 275.200 C 146.529 275.200,146.000 275.020,146.000 274.800 C 146.000 274.580,145.370 274.400,144.600 274.400 C 143.830 274.400,143.200 274.220,143.200 274.000 C 143.200 273.780,142.409 273.600,141.443 273.600 C 140.335 273.600,139.609 273.400,139.478 273.059 C 139.345 272.713,138.742 272.553,137.806 272.616 C 136.851 272.680,136.268 272.520,136.128 272.157 C 135.982 271.777,135.235 271.600,133.781 271.600 C 132.607 271.600,131.536 271.420,131.400 271.200 C 131.243 270.947,126.404 270.800,118.200 270.800 C 109.996 270.800,105.157 270.947,105.000 271.200 M125.941 315.883 C 126.312 316.255,127.077 316.419,128.016 316.330 C 129.092 316.227,129.449 316.328,129.309 316.694 C 129.169 317.057,129.636 317.200,130.957 317.200 C 131.971 317.200,132.800 317.380,132.800 317.600 C 132.800 317.820,133.340 318.000,134.000 318.000 C 134.660 318.000,135.200 318.180,135.200 318.400 C 135.200 318.620,135.815 318.800,136.567 318.800 C 137.318 318.800,137.997 318.990,138.074 319.221 C 138.225 319.675,140.482 320.359,142.900 320.683 C 143.725 320.794,144.400 321.045,144.400 321.242 C 144.400 321.439,144.940 321.600,145.600 321.600 C 146.260 321.600,146.800 321.780,146.800 322.000 C 146.800 322.220,147.533 322.400,148.429 322.400 C 149.343 322.400,150.320 322.663,150.657 323.000 C 150.987 323.330,151.874 323.600,152.629 323.600 C 153.383 323.600,154.000 323.780,154.000 324.000 C 154.000 324.220,154.810 324.400,155.800 324.400 C 156.790 324.400,157.600 324.580,157.600 324.800 C 157.600 325.020,158.590 325.200,159.800 325.200 C 161.010 325.200,162.000 325.380,162.000 325.600 C 162.000 325.822,163.056 326.000,164.367 326.000 C 165.904 326.000,166.792 326.175,166.902 326.500 C 167.030 326.881,167.246 326.858,167.812 326.400 C 168.239 326.054,168.426 326.012,168.253 326.300 C 168.026 326.678,168.535 326.800,170.334 326.800 C 172.081 326.800,172.776 326.960,172.945 327.400 C 173.127 327.875,173.968 328.000,176.987 328.000 C 179.181 328.000,180.800 328.165,180.800 328.388 C 180.800 328.632,187.889 328.781,200.000 328.792 C 212.690 328.803,219.200 328.672,219.200 328.405 C 219.200 328.160,220.709 328.000,223.013 328.000 C 226.032 328.000,226.873 327.875,227.055 327.400 C 227.231 326.942,227.981 326.800,230.219 326.800 C 231.833 326.800,233.264 326.620,233.400 326.400 C 233.536 326.180,234.627 326.000,235.824 326.000 C 237.021 326.000,238.000 325.820,238.000 325.600 C 238.000 325.380,238.990 325.200,240.200 325.200 C 241.410 325.200,242.400 325.020,242.400 324.800 C 242.400 324.580,243.210 324.400,244.200 324.400 C 245.190 324.400,246.000 324.220,246.000 324.000 C 246.000 323.780,246.726 323.600,247.613 323.600 C 248.677 323.600,249.303 323.396,249.455 323.000 C 249.612 322.593,250.250 322.400,251.443 322.400 C 252.409 322.400,253.200 322.220,253.200 322.000 C 253.200 321.780,253.729 321.600,254.376 321.600 C 255.023 321.600,255.652 321.440,255.773 321.244 C 255.894 321.049,256.624 320.779,257.396 320.644 C 258.168 320.510,259.444 320.289,260.231 320.153 C 261.018 320.017,261.757 319.657,261.874 319.353 C 261.996 319.033,262.657 318.800,263.443 318.800 C 264.189 318.800,264.800 318.620,264.800 318.400 C 264.800 318.180,265.329 318.000,265.976 318.000 C 266.623 318.000,267.264 317.820,267.400 317.600 C 267.536 317.380,268.357 317.200,269.224 317.200 C 270.091 317.200,270.800 317.020,270.800 316.800 C 270.800 316.580,271.417 316.400,272.171 316.400 C 272.926 316.400,273.824 316.118,274.168 315.774 C 275.082 314.861,290.770 314.881,291.444 315.797 C 291.740 316.199,292.575 316.400,293.944 316.400 C 295.075 316.400,296.000 316.580,296.000 316.800 C 296.000 317.020,296.810 317.200,297.800 317.200 C 298.790 317.200,299.600 317.380,299.600 317.600 C 299.600 317.820,300.230 318.000,301.000 318.000 C 301.770 318.000,302.400 318.180,302.400 318.400 C 302.400 318.620,302.895 318.806,303.500 318.813 C 304.105 318.820,304.949 319.090,305.376 319.413 C 305.804 319.736,306.479 320.000,306.876 320.000 C 307.274 320.000,307.600 320.200,307.600 320.445 C 307.600 320.709,308.072 320.821,308.759 320.721 C 309.597 320.598,309.861 320.696,309.716 321.075 C 309.581 321.426,309.861 321.600,310.557 321.600 C 311.131 321.600,311.600 321.780,311.600 322.000 C 311.600 322.220,312.140 322.400,312.800 322.400 C 313.600 322.400,314.000 322.600,314.000 323.000 C 314.000 323.333,314.356 323.600,314.800 323.600 C 315.240 323.600,315.600 323.800,315.600 324.043 C 315.600 324.316,316.025 324.399,316.700 324.259 C 317.305 324.134,317.575 324.130,317.300 324.249 C 316.520 324.589,316.713 325.200,317.600 325.200 C 318.040 325.200,318.400 325.380,318.400 325.600 C 318.400 325.820,318.760 326.000,319.200 326.000 C 319.640 326.000,320.000 326.180,320.000 326.400 C 320.000 326.620,320.251 326.800,320.557 326.800 C 320.864 326.800,321.218 327.070,321.345 327.400 C 321.471 327.730,321.811 328.000,322.099 328.000 C 322.387 328.000,322.883 328.360,323.200 328.800 C 323.517 329.240,324.110 329.600,324.517 329.600 C 325.230 329.600,326.400 330.470,326.400 331.000 C 326.400 331.415,327.505 332.400,327.971 332.400 C 328.207 332.400,328.400 332.580,328.400 332.800 C 328.400 333.020,328.683 333.200,329.029 333.200 C 329.697 333.200,330.800 334.119,330.800 334.676 C 330.800 334.860,331.278 335.368,331.862 335.805 C 333.387 336.947,335.200 338.676,335.200 338.989 C 335.200 339.398,336.292 340.400,336.738 340.400 C 336.955 340.400,337.372 340.940,337.664 341.600 C 337.956 342.260,338.331 342.800,338.498 342.800 C 338.664 342.800,338.800 342.993,338.800 343.229 C 338.800 343.695,339.785 344.800,340.200 344.800 C 340.730 344.800,341.600 345.970,341.600 346.683 C 341.600 347.090,341.960 347.683,342.400 348.000 C 342.840 348.317,343.200 348.813,343.200 349.101 C 343.200 349.389,343.470 349.729,343.800 349.855 C 344.130 349.982,344.400 350.336,344.400 350.643 C 344.400 350.949,344.580 351.200,344.800 351.200 C 345.020 351.200,345.200 351.560,345.200 352.000 C 345.200 352.440,345.380 352.800,345.600 352.800 C 345.820 352.800,346.000 353.160,346.000 353.600 C 346.000 354.040,346.180 354.400,346.400 354.400 C 346.620 354.400,346.800 354.676,346.800 355.013 C 346.800 355.349,347.080 355.733,347.423 355.864 C 347.766 355.996,347.951 356.350,347.836 356.652 C 347.716 356.963,347.879 357.200,348.213 357.200 C 348.569 357.200,348.800 357.584,348.800 358.176 C 348.800 358.713,348.980 359.264,349.200 359.400 C 349.420 359.536,349.600 360.087,349.600 360.624 C 349.600 361.161,349.780 361.600,350.000 361.600 C 350.220 361.600,350.400 362.050,350.400 362.600 C 350.400 363.150,350.580 363.600,350.800 363.600 C 351.020 363.600,351.200 364.056,351.200 364.613 C 351.200 365.169,351.470 365.729,351.800 365.855 C 352.170 365.997,352.400 366.605,352.400 367.443 C 352.400 368.189,352.580 368.800,352.800 368.800 C 353.020 368.800,353.200 369.430,353.200 370.200 C 353.200 370.970,353.380 371.600,353.600 371.600 C 353.820 371.600,354.000 372.395,354.000 373.367 C 354.000 374.338,354.176 375.193,354.390 375.267 C 354.605 375.340,354.813 376.347,354.854 377.504 C 354.895 378.692,355.161 379.801,355.464 380.053 C 355.863 380.384,356.000 381.858,356.000 385.825 C 356.000 388.946,356.166 391.255,356.400 391.400 C 356.651 391.555,356.800 395.737,356.800 402.624 L 356.800 413.600 200.000 413.600 L 43.200 413.600 43.200 402.400 C 43.200 395.200,43.343 391.200,43.600 391.200 C 43.848 391.200,44.000 389.062,44.000 385.587 C 44.000 380.968,44.106 379.934,44.600 379.745 C 45.031 379.579,45.200 378.906,45.200 377.357 C 45.200 376.171,45.380 375.200,45.600 375.200 C 45.820 375.200,46.000 374.289,46.000 373.176 C 46.000 371.929,46.153 371.248,46.400 371.400 C 46.638 371.547,46.800 371.071,46.800 370.224 C 46.800 369.441,46.980 368.800,47.200 368.800 C 47.420 368.800,47.600 368.189,47.600 367.443 C 47.600 366.605,47.830 365.997,48.200 365.855 C 48.530 365.729,48.800 365.169,48.800 364.613 C 48.800 364.056,48.980 363.600,49.200 363.600 C 49.420 363.600,49.600 363.150,49.600 362.600 C 49.600 362.050,49.780 361.600,50.000 361.600 C 50.220 361.600,50.400 361.150,50.400 360.600 C 50.400 360.050,50.580 359.600,50.800 359.600 C 51.020 359.600,51.200 359.144,51.200 358.587 C 51.200 358.031,51.470 357.471,51.800 357.345 C 52.130 357.218,52.400 356.774,52.400 356.357 C 52.400 355.941,52.580 355.600,52.800 355.600 C 53.020 355.600,53.200 355.330,53.200 355.000 C 53.200 354.670,53.380 354.400,53.600 354.400 C 53.820 354.400,54.000 354.040,54.000 353.600 C 54.000 353.160,54.180 352.800,54.400 352.800 C 54.620 352.800,54.800 352.521,54.800 352.181 C 54.800 351.840,55.250 351.145,55.800 350.635 C 56.350 350.125,56.800 349.454,56.800 349.142 C 56.800 348.831,57.160 348.317,57.600 348.000 C 58.040 347.683,58.400 347.090,58.400 346.683 C 58.400 345.970,59.270 344.800,59.800 344.800 C 60.215 344.800,61.200 343.695,61.200 343.229 C 61.200 342.993,61.380 342.800,61.600 342.800 C 61.820 342.800,62.000 342.517,62.000 342.171 C 62.000 341.548,62.907 340.400,63.400 340.400 C 63.728 340.400,64.800 339.336,64.800 339.010 C 64.800 338.695,66.686 336.800,67.000 336.800 C 67.314 336.800,69.200 334.905,69.200 334.590 C 69.200 334.105,70.354 333.200,70.971 333.200 C 71.317 333.200,71.600 333.020,71.600 332.800 C 71.600 332.580,71.793 332.400,72.029 332.400 C 72.495 332.400,73.600 331.415,73.600 331.000 C 73.600 330.470,74.770 329.600,75.483 329.600 C 75.890 329.600,76.483 329.240,76.800 328.800 C 77.117 328.360,77.613 328.000,77.901 328.000 C 78.189 328.000,78.529 327.730,78.655 327.400 C 78.782 327.070,79.136 326.800,79.443 326.800 C 79.749 326.800,80.000 326.620,80.000 326.400 C 80.000 326.180,80.360 326.000,80.800 326.000 C 81.240 326.000,81.600 325.820,81.600 325.600 C 81.600 325.380,81.960 325.200,82.400 325.200 C 82.840 325.200,83.200 325.020,83.200 324.800 C 83.200 324.580,83.470 324.400,83.800 324.400 C 84.130 324.400,84.400 324.220,84.400 324.000 C 84.400 323.780,84.760 323.600,85.200 323.600 C 85.644 323.600,86.000 323.333,86.000 323.000 C 86.000 322.631,86.375 322.400,86.976 322.400 C 87.513 322.400,88.064 322.220,88.200 322.000 C 88.336 321.780,88.887 321.600,89.424 321.600 C 89.961 321.600,90.400 321.420,90.400 321.200 C 90.400 320.980,90.850 320.800,91.400 320.800 C 91.950 320.800,92.400 320.620,92.400 320.400 C 92.400 320.180,92.726 320.000,93.124 320.000 C 93.521 320.000,94.196 319.736,94.624 319.413 C 95.051 319.090,95.895 318.820,96.500 318.813 C 97.105 318.806,97.600 318.620,97.600 318.400 C 97.600 318.180,98.230 318.000,99.000 318.000 C 99.770 318.000,100.400 317.820,100.400 317.600 C 100.400 317.380,101.210 317.200,102.200 317.200 C 103.190 317.200,104.000 317.020,104.000 316.800 C 104.000 316.580,104.971 316.400,106.157 316.400 C 107.687 316.400,108.380 316.229,108.540 315.812 C 108.965 314.705,124.827 314.770,125.941 315.883 " stroke="none" fill="#5c5c5c" fill-rule="evenodd"></path><path id="path1" d="M70.893 116.800 C 70.893 117.570,70.975 117.885,71.076 117.500 C 71.176 117.115,71.176 116.485,71.076 116.100 C 70.975 115.715,70.893 116.030,70.893 116.800 M70.960 128.600 C 70.961 131.900,71.022 133.197,71.098 131.482 C 71.173 129.767,71.172 127.067,71.097 125.482 C 71.021 123.897,70.959 125.300,70.960 128.600 M70.893 140.000 C 70.893 140.770,70.975 141.085,71.076 140.700 C 71.176 140.315,71.176 139.685,71.076 139.300 C 70.975 138.915,70.893 139.230,70.893 140.000 M192.700 284.282 C 193.195 284.378,194.005 284.378,194.500 284.282 C 194.995 284.187,194.590 284.109,193.600 284.109 C 192.610 284.109,192.205 284.187,192.700 284.282 M205.500 284.282 C 205.995 284.378,206.805 284.378,207.300 284.282 C 207.795 284.187,207.390 284.109,206.400 284.109 C 205.410 284.109,205.005 284.187,205.500 284.282 " stroke="none" fill="#605c5c" fill-rule="evenodd"></path><path id="path2" d="M70.893 116.800 C 70.893 117.570,70.975 117.885,71.076 117.500 C 71.176 117.115,71.176 116.485,71.076 116.100 C 70.975 115.715,70.893 116.030,70.893 116.800 M70.960 128.600 C 70.961 131.900,71.022 133.197,71.098 131.482 C 71.173 129.767,71.172 127.067,71.097 125.482 C 71.021 123.897,70.959 125.300,70.960 128.600 M70.893 140.000 C 70.893 140.770,70.975 141.085,71.076 140.700 C 71.176 140.315,71.176 139.685,71.076 139.300 C 70.975 138.915,70.893 139.230,70.893 140.000 M192.700 284.282 C 193.195 284.378,194.005 284.378,194.500 284.282 C 194.995 284.187,194.590 284.109,193.600 284.109 C 192.610 284.109,192.205 284.187,192.700 284.282 M205.500 284.282 C 205.995 284.378,206.805 284.378,207.300 284.282 C 207.795 284.187,207.390 284.109,206.400 284.109 C 205.410 284.109,205.005 284.187,205.500 284.282 " stroke="none" fill="#605c5c" fill-rule="evenodd"></path><path id="path3" d="M70.893 116.800 C 70.893 117.570,70.975 117.885,71.076 117.500 C 71.176 117.115,71.176 116.485,71.076 116.100 C 70.975 115.715,70.893 116.030,70.893 116.800 M70.960 128.600 C 70.961 131.900,71.022 133.197,71.098 131.482 C 71.173 129.767,71.172 127.067,71.097 125.482 C 71.021 123.897,70.959 125.300,70.960 128.600 M70.893 140.000 C 70.893 140.770,70.975 141.085,71.076 140.700 C 71.176 140.315,71.176 139.685,71.076 139.300 C 70.975 138.915,70.893 139.230,70.893 140.000 M192.700 284.282 C 193.195 284.378,194.005 284.378,194.500 284.282 C 194.995 284.187,194.590 284.109,193.600 284.109 C 192.610 284.109,192.205 284.187,192.700 284.282 M205.500 284.282 C 205.995 284.378,206.805 284.378,207.300 284.282 C 207.795 284.187,207.390 284.109,206.400 284.109 C 205.410 284.109,205.005 284.187,205.500 284.282 " stroke="none" fill="#605c5c" fill-rule="evenodd"></path><path id="path4" d="M70.893 116.800 C 70.893 117.570,70.975 117.885,71.076 117.500 C 71.176 117.115,71.176 116.485,71.076 116.100 C 70.975 115.715,70.893 116.030,70.893 116.800 M70.960 128.600 C 70.961 131.900,71.022 133.197,71.098 131.482 C 71.173 129.767,71.172 127.067,71.097 125.482 C 71.021 123.897,70.959 125.300,70.960 128.600 M70.893 140.000 C 70.893 140.770,70.975 141.085,71.076 140.700 C 71.176 140.315,71.176 139.685,71.076 139.300 C 70.975 138.915,70.893 139.230,70.893 140.000 M192.700 284.282 C 193.195 284.378,194.005 284.378,194.500 284.282 C 194.995 284.187,194.590 284.109,193.600 284.109 C 192.610 284.109,192.205 284.187,192.700 284.282 M205.500 284.282 C 205.995 284.378,206.805 284.378,207.300 284.282 C 207.795 284.187,207.390 284.109,206.400 284.109 C 205.410 284.109,205.005 284.187,205.500 284.282 " stroke="none" fill="#605c5c" fill-rule="evenodd"></path></g></svg>